<svg id="visual" viewBox="0 0 960 200" width="960" height="200" xmlns="http://www.w3.org/2000/svg" xmlns:xlink="http://www.w3.org/1999/xlink" version="1.1"><rect x="0" y="0" width="960" height="300" fill="#62c6fc"></rect><path d="M0 199L22.8 201.2C45.7 203.3 91.3 207.7 137 194.5C182.7 181.3 228.3 150.7 274 148C319.7 145.3 365.3 170.7 411.2 173.7C457 176.7 503 157.3 548.8 159.2C594.7 161 640.3 184 686 191.5C731.7 199 777.3 191 823 177.3C868.7 163.7 914.3 144.3 937.2 134.7L960 125L960 301L937.2 301C914.3 301 868.7 301 823 301C777.3 301 731.7 301 686 301C640.3 301 594.7 301 548.8 301C503 301 457 301 411.2 301C365.3 301 319.7 301 274 301C228.3 301 182.7 301 137 301C91.3 301 45.7 301 22.8 301L0 301Z" fill="#ff61b8" stroke-linecap="round" stroke-linejoin="miter"></path></svg>